<mxfile host="65bd71144e">
    <diagram id="DAqB09FegdzCANv1swps" name="Page-1">
        <mxGraphModel dx="1195" dy="719" grid="1" gridSize="10" guides="1" tooltips="1" connect="1" arrows="1" fold="1" page="1" pageScale="1" pageWidth="1100" pageHeight="850" math="0" shadow="0">
            <root>
                <mxCell id="0"/>
                <mxCell id="1" parent="0"/>
                <mxCell id="14" value="" style="whiteSpace=wrap;html=1;strokeColor=#007FFF;" vertex="1" parent="1">
                    <mxGeometry x="288" y="190" width="190" height="160" as="geometry"/>
                </mxCell>
                <mxCell id="15" value="" style="whiteSpace=wrap;html=1;strokeColor=#007FFF;" vertex="1" parent="1">
                    <mxGeometry x="100" y="90" width="150" height="80" as="geometry"/>
                </mxCell>
                <mxCell id="16" value="Hub1&lt;br&gt;10.0.0.0/24" style="text;html=1;align=center;verticalAlign=middle;resizable=0;points=[];autosize=1;strokeColor=none;fillColor=none;" vertex="1" parent="1">
                    <mxGeometry x="343" y="150" width="80" height="40" as="geometry"/>
                </mxCell>
                <mxCell id="17" value="Spoke1&lt;br&gt;10.0.1.0/24" style="text;html=1;align=center;verticalAlign=middle;resizable=0;points=[];autosize=1;strokeColor=none;fillColor=none;fontStyle=1" vertex="1" parent="1">
                    <mxGeometry x="130" y="50" width="80" height="40" as="geometry"/>
                </mxCell>
                <mxCell id="18" value="" style="whiteSpace=wrap;html=1;strokeColor=#007FFF;" vertex="1" parent="1">
                    <mxGeometry x="520" y="80" width="160" height="90" as="geometry"/>
                </mxCell>
                <mxCell id="19" value="Spoke2&lt;br&gt;10.0.2.0/24" style="text;html=1;align=center;verticalAlign=middle;resizable=0;points=[];autosize=1;strokeColor=none;fillColor=none;fontStyle=1" vertex="1" parent="1">
                    <mxGeometry x="560" y="40" width="80" height="40" as="geometry"/>
                </mxCell>
                <mxCell id="20" value="" style="aspect=fixed;html=1;points=[];align=center;image;fontSize=12;image=img/lib/azure2/networking/Virtual_Network_Gateways.svg;glass=0;dashed=1;dashPattern=8 8;strokeColor=#E6E6E6;fontColor=#000000;fillColor=#CCCCCC;rounded=0;sketch=1;hachureGap=4;jiggle=2;curveFitting=1;fontFamily=Architects Daughter;fontSource=https%3A%2F%2Ffonts.googleapis.com%2Fcss%3Ffamily%3DArchitects%2BDaughter;" vertex="1" parent="1">
                    <mxGeometry x="407.86" y="280" width="30.14" height="40" as="geometry"/>
                </mxCell>
                <mxCell id="21" value="" style="aspect=fixed;html=1;points=[];align=center;image;fontSize=12;image=img/lib/azure2/networking/Virtual_Network_Gateways.svg;glass=0;dashed=1;dashPattern=8 8;strokeColor=#E6E6E6;fontColor=#000000;fillColor=#CCCCCC;rounded=0;sketch=1;hachureGap=4;jiggle=2;curveFitting=1;fontFamily=Architects Daughter;fontSource=https%3A%2F%2Ffonts.googleapis.com%2Fcss%3Ffamily%3DArchitects%2BDaughter;" vertex="1" parent="1">
                    <mxGeometry x="318" y="280" width="30.14" height="40" as="geometry"/>
                </mxCell>
                <mxCell id="22" value="" style="aspect=fixed;html=1;points=[];align=center;image;fontSize=12;image=img/lib/azure2/compute/Virtual_Machine.svg;strokeColor=#007FFF;" vertex="1" parent="1">
                    <mxGeometry x="362.24" y="211.5" width="41.51" height="38.5" as="geometry"/>
                </mxCell>
                <mxCell id="23" value="VPNGW" style="text;html=1;align=center;verticalAlign=middle;resizable=0;points=[];autosize=1;strokeColor=none;fillColor=none;" vertex="1" parent="1">
                    <mxGeometry x="387.93" y="320" width="70" height="30" as="geometry"/>
                </mxCell>
                <mxCell id="24" value="ERGW" style="text;html=1;align=center;verticalAlign=middle;resizable=0;points=[];autosize=1;strokeColor=none;fillColor=none;" vertex="1" parent="1">
                    <mxGeometry x="303" y="320" width="60" height="30" as="geometry"/>
                </mxCell>
                <mxCell id="25" value="On-premises1" style="whiteSpace=wrap;html=1;strokeColor=#999999;fillColor=#E6E6E6;" vertex="1" parent="1">
                    <mxGeometry x="100" y="530" width="195" height="90" as="geometry"/>
                </mxCell>
                <mxCell id="26" value="On-premises2" style="whiteSpace=wrap;html=1;strokeColor=#999999;fillColor=#E6E6E6;" vertex="1" parent="1">
                    <mxGeometry x="450" y="530" width="195" height="90" as="geometry"/>
                </mxCell>
                <mxCell id="27" value="" style="aspect=fixed;html=1;points=[];align=center;image;fontSize=12;image=img/lib/azure2/networking/ExpressRoute_Circuits.svg;strokeColor=#999999;fillColor=#E6E6E6;" vertex="1" parent="1">
                    <mxGeometry x="175.62" y="420" width="43.75" height="40" as="geometry"/>
                </mxCell>
                <mxCell id="29" value="&lt;div style=&quot;color: rgb(248, 248, 242); background-color: rgb(39, 40, 34); font-family: Consolas, &amp;quot;Courier New&amp;quot;, monospace; font-size: 14px; line-height: 19px;&quot;&gt;&lt;span style=&quot;color: #66d9ef;font-style: italic;&quot;&gt;192.168.0.0/24&lt;/span&gt;&lt;/div&gt;" style="text;html=1;align=center;verticalAlign=middle;resizable=0;points=[];autosize=1;strokeColor=none;fillColor=none;" vertex="1" parent="1">
                    <mxGeometry x="130" y="620" width="130" height="30" as="geometry"/>
                </mxCell>
                <mxCell id="30" value="&lt;div style=&quot;color: rgb(248, 248, 242); background-color: rgb(39, 40, 34); font-family: Consolas, &amp;quot;Courier New&amp;quot;, monospace; font-size: 14px; line-height: 19px;&quot;&gt;&lt;span style=&quot;color: #66d9ef;font-style: italic;&quot;&gt;192.168.100.0/24&lt;/span&gt;&lt;/div&gt;" style="text;html=1;align=center;verticalAlign=middle;resizable=0;points=[];autosize=1;strokeColor=none;fillColor=none;" vertex="1" parent="1">
                    <mxGeometry x="472.5" y="620" width="150" height="30" as="geometry"/>
                </mxCell>
            </root>
        </mxGraphModel>
    </diagram>
</mxfile>